<svg t="1638082489997" class="icon" viewBox="0 0 1024 1024" version="1.1" xmlns="http://www.w3.org/2000/svg" p-id="14150" width="200" height="200"><path d="M729.6 590.4c22.4 0 46.4 3.2 67.2 9.6V172.8H145.6V864h364.8c-3.2-16-4.8-32-4.8-48 0-124.8 100.8-225.6 224-225.6z m-448-315.2h382.4v67.2H281.6v-67.2z m0 180.8h382.4v67.2H281.6v-67.2zM235.2 51.2h472v88H235.2z" fill="#B9DAED" p-id="14151"></path><path d="M729.6 635.2c-99.2 0-179.2 80-179.2 179.2 0 99.2 80 179.2 179.2 179.2 99.2 0 179.2-80 179.2-179.2 1.6-99.2-78.4-179.2-179.2-179.2z m124.8 214.4h-88v88h-59.2v-88h-88v-59.2h88v-88h59.2v88h88v59.2z" fill="#1296DB" p-id="14152"></path></svg>